<?xml version="1.0" encoding="UTF-8"?>
<svg width="44px" height="44px" viewBox="0 0 44 44" version="1.1" xmlns="http://www.w3.org/2000/svg" xmlns:xlink="http://www.w3.org/1999/xlink">
    <g stroke="none" stroke-width="1" fill="none" fill-rule="evenodd">
        <g id="Home---Upcoming" transform="translate(-115.000000, -1340.000000)" fill="#01666b">
            <g id="calendar" transform="translate(115.000000, 1340.000000)">
                <path d="M5,3 C2.35114504,3 0,5.38174274 0,8 L0,39 C0,41.7883817 2.35114504,44 5,44 L39,44 C41.648855,44 44,41.7883817 44,39 L44,8 C44,5.38174274 41.648855,3 39,3 L35,3 L35,6 C34.9697713,10.0439027 28.9406863,9.96178494 29,6 L29,3 L15,3 L15,6 C15.0160663,10.0248726 8.98225268,10.0395201 9,6 L9,3 L5,3 Z M3,15 L41,15 L41,39 C41,40.3112583 40.3303167,41 39,41 L5,41 C3.83710407,41 3,40.3112583 3,39 L3,15 Z" id="Shape"></path>
                <path d="M30,1.57575758 L30,6.42424242 C30,8.52525253 34,8.52525253 34,6.42424242 L34,1.57575758 C34,-0.525252525 30,-0.525252525 30,1.57575758 Z" id="Path"></path>
                <path d="M10,1.57575758 L10,6.42424242 C10,8.52525253 14,8.52525253 14,6.42424242 L14,1.57575758 C14,-0.525252525 10,-0.525252525 10,1.57575758 Z" id="Path"></path>
            </g>
        </g>
    </g>
</svg>
