<?xml version="1.0" encoding="UTF-8"?>
<svg width="152px" height="160px" viewBox="0 0 152 160" version="1.1" xmlns="http://www.w3.org/2000/svg" xmlns:xlink="http://www.w3.org/1999/xlink">
    <g stroke="none" stroke-width="1" fill="none" fill-rule="evenodd">
        <path d="M144,8 L144,0 L136,0 L128,0 L120,0 L112,0 L104,0 L96,0 L88,0 L80,0 L80,8 L72,8 L72,16 L72,24 L72,32 L72,40 L72,48 L72,56 L64,56 L64,64 L56,64 L56,72 L48,72 L48,80 L40,80 L40,88 L32,88 L24,88 L24,80 L16,80 L16,72 L8,72 L8,64 L8,56 L0,56 L0,64 L0,72 L0,80 L0,88 L0,96 L8,96 L8,104 L16,104 L16,112 L24,112 L24,120 L32,120 L32,128 L40,128 L40,136 L40,144 L40,152 L40,160 L48,160 L56,160 L56,152 L48,152 L48,144 L56,144 L56,136 L64,136 L64,128 L72,128 L80,128 L80,136 L88,136 L96,136 L96,128 L88,128 L88,120 L96,120 L96,112 L104,112 L104,104 L104,96 L104,88 L104,80 L104,72 L112,72 L112,80 L120,80 L120,72 L120,64 L112,64 L104,64 L104,56 L112,56 L120,56 L128,56 L136,56 L136,48 L128,48 L120,48 L112,48 L112,40 L120,40 L128,40 L136,40 L144,40 L152,40 L152,32 L152,24 L152,16 L152,8 L144,8 Z M96,8 L96,16 L88,16 L88,8 L96,8 Z" id="t-rex-152x160" fill="#ca0419" fill-rule="nonzero"></path>
    </g>
</svg>
